HIERARCHY
ROOT hip
{
  OFFSET 0 0 0
  CHANNELS 6 Xposition Yposition Zposition Zrotation Yrotation Xrotation
  JOINT abdomen
  {
    OFFSET 0 20.6881 -0.73152
    CHANNELS 3 Zrotation Xrotation Yrotation
    JOINT chest
    {
      OFFSET 0 11.7043 -0.48768
      CHANNELS 3 Zrotation Xrotation Yrotation
      JOINT neck
      {
        OFFSET 0 22.1894 -2.19456
        CHANNELS 3 Zrotation Xrotation Yrotation
        JOINT head
        {
          OFFSET -0.24384 7.07133 1.2192
          CHANNELS 3 Zrotation Xrotation Yrotation
          JOINT leftEye
          {
            OFFSET 4.14528 8.04674 8.04672
            CHANNELS 3 Zrotation Xrotation Yrotation
            End Site
            {
              OFFSET 1 0 0
            }
          }
          JOINT rightEye
          {
            OFFSET -3.6576 8.04674 8.04672
            CHANNELS 3 Zrotation Xrotation Yrotation
            End Site
            {
              OFFSET 1 0 0
            }
          }
        }
      }
      JOINT rCollar
      {
        OFFSET -2.68224 19.2634 -4.8768
        CHANNELS 3 Zrotation Xrotation Yrotation
        JOINT rShldr
        {
          OFFSET -8.77824 -1.95073 1.46304
          CHANNELS 3 Zrotation Xrotation Yrotation
          JOINT rForeArm
          {
            OFFSET -28.1742 -1.7115 0.48768
            CHANNELS 3 Zrotation Xrotation Yrotation
            JOINT rHand
            {
              OFFSET -22.5879 0.773209 7.07136
              CHANNELS 3 Zrotation Xrotation Yrotation
              JOINT rThumb1
              {
                OFFSET -1.2192 -0.487915 3.41376
                CHANNELS 3 Zrotation Xrotation Yrotation
                JOINT rThumb2
                {
                  OFFSET -3.37035 -0.52449 3.41376
                  CHANNELS 3 Zrotation Xrotation Yrotation
                  End Site
                  {
                    OFFSET -1.78271 -1.18214 1.43049
                  }
                }
              }
              JOINT rIndex1
              {
                OFFSET -7.75947 0.938293 5.60832
                CHANNELS 3 Zrotation Xrotation Yrotation
                JOINT rIndex2
                {
                  OFFSET -2.54057 -0.884171 1.56538
                  CHANNELS 3 Zrotation Xrotation Yrotation
                  End Site
                  {
                    OFFSET -1.62519 -0.234802 1.16502
                  }
                }
              }
              JOINT rMid1
              {
                OFFSET -8.24714 1.18213 3.41376
                CHANNELS 3 Zrotation Xrotation Yrotation
                JOINT rMid2
                {
                  OFFSET -3.10165 -0.590103 1.0647
                  CHANNELS 3 Zrotation Xrotation Yrotation
                  End Site
                  {
                    OFFSET -2.48547 -0.328903 0.83742
                  }
                }
              }
              JOINT rRing1
              {
                OFFSET -8.82822 0.546677 1.51678
                CHANNELS 3 Zrotation Xrotation Yrotation
                JOINT rRing2
                {
                  OFFSET -2.60934 -0.819778 -0.0198488
                  CHANNELS 3 Zrotation Xrotation Yrotation
                  End Site
                  {
                    OFFSET -2.33842 -0.294052 0.168128
                  }
                }
              }
              JOINT rPinky1
              {
                OFFSET -8.27202 -0.0477905 -0.4584
                CHANNELS 3 Zrotation Xrotation Yrotation
                JOINT rPinky2
                {
                  OFFSET -1.82734 -0.647385 -0.700984
                  CHANNELS 3 Zrotation Xrotation Yrotation
                  End Site
                  {
                    OFFSET -1.69225 -0.51767 -0.607171
                  }
                }
              }
            }
          }
        }
      }
      JOINT lCollar
      {
        OFFSET 2.68224 19.2634 -4.8768
        CHANNELS 3 Zrotation Xrotation Yrotation
        JOINT lShldr
        {
          OFFSET 8.77824 -1.95073 1.46304
          CHANNELS 3 Zrotation Xrotation Yrotation
          JOINT lForeArm
          {
            OFFSET 28.1742 -1.7115 0.48768
            CHANNELS 3 Zrotation Xrotation Yrotation
            JOINT lHand
            {
              OFFSET 22.5879 0.773209 7.07136
              CHANNELS 3 Zrotation Xrotation Yrotation
              JOINT lThumb1
              {
                OFFSET 1.2192 -0.487915 3.41376
                CHANNELS 3 Zrotation Xrotation Yrotation
                JOINT lThumb2
                {
                  OFFSET 3.37035 -0.52449 3.41376
                  CHANNELS 3 Zrotation Xrotation Yrotation
                  End Site
                  {
                    OFFSET 1.78271 -1.18214 1.43049
                  }
                }
              }
              JOINT lIndex1
              {
                OFFSET 7.75947 0.938293 5.60832
                CHANNELS 3 Zrotation Xrotation Yrotation
                JOINT lIndex2
                {
                  OFFSET 2.54057 -0.884171 1.56538
                  CHANNELS 3 Zrotation Xrotation Yrotation
                  End Site
                  {
                    OFFSET 1.62519 -0.234802 1.16502
                  }
                }
              }
              JOINT lMid1
              {
                OFFSET 8.24714 1.18213 3.41376
                CHANNELS 3 Zrotation Xrotation Yrotation
                JOINT lMid2
                {
                  OFFSET 3.10165 -0.590103 1.0647
                  CHANNELS 3 Zrotation Xrotation Yrotation
                  End Site
                  {
                    OFFSET 2.48547 -0.328903 0.83742
                  }
                }
              }
              JOINT lRing1
              {
                OFFSET 8.82822 0.546677 1.51678
                CHANNELS 3 Zrotation Xrotation Yrotation
                JOINT lRing2
                {
                  OFFSET 2.60934 -0.819778 -0.0198488
                  CHANNELS 3 Zrotation Xrotation Yrotation
                  End Site
                  {
                    OFFSET 2.33842 -0.294052 0.168128
                  }
                }
              }
              JOINT lPinky1
              {
                OFFSET 8.27202 -0.0477905 -0.4584
                CHANNELS 3 Zrotation Xrotation Yrotation
                JOINT lPinky2
                {
                  OFFSET 1.82734 -0.647385 -0.700984
                  CHANNELS 3 Zrotation Xrotation Yrotation
                  End Site
                  {
                    OFFSET 1.69225 -0.51767 -0.607171
                  }
                }
              }
            }
          }
        }
      }
    }
  }
  JOINT rButtock
  {
    OFFSET -8.77824 4.35084 1.2192
    CHANNELS 3 Zrotation Xrotation Yrotation
    JOINT rThigh
    {
      OFFSET 0 -1.70687 -2.19456
      CHANNELS 3 Zrotation Xrotation Yrotation
      JOINT rShin
      {
        OFFSET 0 -36.8199 0.73152
        CHANNELS 3 Zrotation Xrotation Yrotation
        JOINT rFoot
        {
          OFFSET 0.73152 -45.1104 -5.12064
          CHANNELS 3 Zrotation Xrotation Yrotation
          End Site
          {
            OFFSET -1.1221 -3.69964 12.103
          }
        }
      }
    }
  }
  JOINT lButtock
  {
    OFFSET 8.77824 4.35084 1.2192
    CHANNELS 3 Zrotation Xrotation Yrotation
    JOINT lThigh
    {
      OFFSET 0 -1.70687 -2.19456
      CHANNELS 3 Zrotation Xrotation Yrotation
      JOINT lShin
      {
        OFFSET 0 -36.8199 0.73152
        CHANNELS 3 Zrotation Xrotation Yrotation
        JOINT lFoot
        {
          OFFSET -0.73152 -45.1104 -5.12064
          CHANNELS 3 Zrotation Xrotation Yrotation
          End Site
          {
            OFFSET 1.1221 -3.69964 12.103
          }
        }
      }
    }
  }
}
MOTION
Frames:	4
Frame Time:	0.00833333
23.4703 80.7242 -60.2864 -10.5497 -11.8037 39.2359 -15.4434 46.0784 2.44566 -3.71167 -4.07401 -1.63127 -13.3699 3.25955 -9.82066 13.6719 10.9026 -16.6233 -0.0 0.0 0.0 -0.0 0.0 0.0 -1.73609e-13 3.48062e-14 1.53376e-13 42.3476 14.5399 1.76675 -21.4637 -52.1256 110.53 -0.189581 12.3114 1.75765 -3.05777e-10 2.08501e-09 -1.28212e-09 -5.39814e-10 3.59639e-09 -2.21696e-09 -3.05779e-10 2.08501e-09 -1.28213e-09 7.73091 5.47488 0.417314 -3.05781e-10 2.08502e-09 -1.28212e-09 2.90554 0.965183 0.102902 -3.05772e-10 2.08501e-09 -1.28213e-09 10.2786 0.731801 0.0259123 -3.0578e-10 2.08501e-09 -1.28212e-09 2.22167 -0.733487 -0.20892 -1.7362e-13 3.4806e-14 1.5318e-13 -1.38136 33.3545 -91.0982 28.1907 -31.9044 -70.2987 108.336 -81.0661 116.615 -1.94234e-10 4.74722e-10 -8.1942e-10 -2.72871e-10 7.54857e-10 -1.39293e-09 -1.94235e-10 4.74726e-10 -8.19408e-10 -7.73091 5.47488 -0.417314 -1.94234e-10 4.74723e-10 -8.1942e-10 -2.90554 0.965183 -0.102902 -1.94244e-10 4.74723e-10 -8.19415e-10 -10.2786 0.731801 -0.0259123 -1.94233e-10 4.74722e-10 -8.19416e-10 -2.22167 -0.733487 0.20892 -2.03217e-16 0.0 -3.88251e-19 15.5598 -59.7112 -9.12907 0.023866 20.5188 0.377695 -0.244163 -0.360334 8.37052 2.03217e-16 0.0 3.88251e-19 38.2465 -62.4272 17.1446 0.337214 37.2224 -0.436934 1.53609 -6.83473 4.47611
23.4655 80.7267 -60.2852 -10.5892 -11.779 39.2033 -15.3468 46.0535 2.37979 -3.68793 -4.07685 -1.63629 -13.3436 3.17674 -9.81163 13.6062 10.9871 -16.6027 -0.0 0.0 0.0 -0.0 0.0 0.0 -1.96807e-13 1.20861e-13 3.03991e-13 42.3133 14.575 1.75116 -21.4337 -52.1526 110.609 -0.190379 12.3367 1.76139 -6.31111e-10 2.91643e-09 -2.01167e-09 -1.11006e-09 5.02191e-09 -3.47508e-09 -6.31113e-10 2.91643e-09 -2.01168e-09 7.73091 5.47488 0.417314 -6.31115e-10 2.91645e-09 -2.01168e-09 2.90554 0.965183 0.102902 -6.31106e-10 2.91643e-09 -2.01168e-09 10.2786 0.731801 0.0259123 -6.31115e-10 2.91643e-09 -2.01168e-09 2.22167 -0.733487 -0.20892 -1.96799e-13 1.20861e-13 3.03842e-13 -1.4826 33.3647 -91.0138 28.1972 -31.9574 -70.3851 108.634 -81.043 116.916 -1.39465e-10 9.36853e-10 -1.2466e-09 -1.53117e-10 1.4897e-09 -2.10275e-09 -1.39465e-10 9.36857e-10 -1.24659e-09 -7.73091 5.47488 -0.417314 -1.39464e-10 9.36854e-10 -1.2466e-09 -2.90554 0.965183 -0.102902 -1.39472e-10 9.36854e-10 -1.24659e-09 -10.2786 0.731801 -0.0259123 -1.39462e-10 9.36853e-10 -1.2466e-09 -2.22167 -0.733487 0.20892 -2.03217e-16 0.0 -3.88251e-19 15.6299 -59.6783 -9.00769 0.0237867 20.4927 0.377853 -0.253441 -0.320963 8.3021 2.03217e-16 0.0 3.88251e-19 38.3203 -62.4139 17.2451 0.337628 37.2378 -0.43689 1.52087 -6.84056 4.41351
23.4661 80.7277 -60.2808 -10.6064 -11.7534 39.1551 -15.2516 46.0278 2.37 -3.65956 -4.08592 -1.62721 -13.3139 3.14063 -9.82756 13.584 11.0638 -16.6398 -0.0 0.0 0.0 -0.0 0.0 0.0 -1.91935e-13 1.36261e-13 3.72452e-13 42.2749 14.6131 1.74849 -21.4256 -52.1598 110.63 -0.19064 12.3449 1.7626 -5.62425e-10 3.67288e-09 -2.46269e-09 -9.93848e-10 6.33043e-09 -4.25624e-09 -5.62426e-10 3.67289e-09 -2.4627e-09 7.73091 5.47488 0.417314 -5.62428e-10 3.6729e-09 -2.46269e-09 2.90554 0.965183 0.102902 -5.6242e-10 3.67289e-09 -2.4627e-09 10.2786 0.731801 0.0259123 -5.6243e-10 3.67289e-09 -2.46269e-09 2.22167 -0.733487 -0.20892 -1.91905e-13 1.36261e-13 3.7233e-13 -1.51331 33.4165 -91.0705 28.1995 -31.9762 -70.4159 110.555 -80.884 118.862 1.37821e-10 1.32323e-09 -1.69636e-09 3.51235e-10 2.1511e-09 -2.84148e-09 1.37822e-10 1.32324e-09 -1.69635e-09 -7.73091 5.47488 -0.417314 1.37822e-10 1.32323e-09 -1.69636e-09 -2.90554 0.965183 -0.102902 1.37817e-10 1.32323e-09 -1.69636e-09 -10.2786 0.731801 -0.0259123 1.37831e-10 1.32323e-09 -1.69636e-09 -2.22167 -0.733487 0.20892 -2.03217e-16 0.0 -3.88251e-19 15.6576 -59.6416 -8.97272 0.0232128 20.4744 0.378189 -0.259533 -0.298726 8.27524 2.03217e-16 0.0 3.88251e-19 38.3754 -62.4016 17.3258 0.338136 37.2588 -0.436811 1.50738 -6.843 4.36093
23.4737 80.7277 -60.278 -10.605 -11.7426 39.1123 -15.1531 46.0053 2.39417 -3.62721 -4.10071 -1.60929 -13.2772 3.13342 -9.86032 13.5798 11.1351 -16.7153 -0.0 0.0 0.0 -0.0 0.0 0.0 -1.66466e-13 1.15047e-13 4.00228e-13 42.2262 14.6635 1.759 -21.4326 -52.1533 110.612 -0.190451 12.3389 1.76171 -2.69662e-10 4.432e-09 -2.78934e-09 -4.87458e-10 7.65055e-09 -4.82501e-09 -2.69659e-10 4.43201e-09 -2.78936e-09 7.73091 5.47488 0.417314 -2.69663e-10 4.43201e-09 -2.78935e-09 2.90554 0.965183 0.102902 -2.69655e-10 4.432e-09 -2.78935e-09 10.2786 0.731801 0.0259123 -2.69667e-10 4.432e-09 -2.78934e-09 2.22167 -0.733487 -0.20892 -1.6641e-13 1.15047e-13 4.00126e-13 -1.50404 33.4959 -91.22 28.1991 -31.973 -70.4109 113.437 -80.6134 121.782 5.71664e-10 1.70541e-09 -2.19291e-09 1.12771e-09 2.83646e-09 -3.65158e-09 5.71667e-10 1.70541e-09 -2.1929e-09 -7.73091 5.47488 -0.417314 5.71665e-10 1.70541e-09 -2.1929e-09 -2.90554 0.965183 -0.102902 5.71664e-10 1.70541e-09 -2.1929e-09 -10.2786 0.731801 -0.0259123 5.71684e-10 1.70542e-09 -2.19291e-09 -2.22167 -0.733487 0.20892 -2.03217e-16 0.0 -3.88251e-19 15.6617 -59.5988 -8.98965 0.0223183 20.4615 0.378702 -0.264033 -0.286293 8.26969 2.03217e-16 0.0 3.88251e-19 38.4258 -62.3884 17.4023 0.338765 37.2862 -0.436759 1.49351 -6.8449 4.30855
